<svg width="70" height="71" viewBox="0 0 70 71" fill="none" xmlns="http://www.w3.org/2000/svg">
<rect x="1.75" y="2.75" width="66.5" height="66.5" rx="14" fill="#191919"/>
<path d="M15.5874 18.5874H19.0874L23.7424 40.3224C23.9132 41.1184 24.3561 41.83 24.9949 42.3347C25.6337 42.8393 26.4285 43.1055 27.2424 43.0874H44.3574C45.154 43.0861 45.9262 42.8132 46.5467 42.3136C47.1671 41.8141 47.5986 41.1178 47.7699 40.3399L50.6574 27.3374H20.9599M27.7499 51.7499C27.7499 52.7164 26.9664 53.4999 25.9999 53.4999C25.0334 53.4999 24.2499 52.7164 24.2499 51.7499C24.2499 50.7834 25.0334 49.9999 25.9999 49.9999C26.9664 49.9999 27.7499 50.7834 27.7499 51.7499ZM46.9999 51.7499C46.9999 52.7164 46.2164 53.4999 45.2499 53.4999C44.2834 53.4999 43.4999 52.7164 43.4999 51.7499C43.4999 50.7834 44.2834 49.9999 45.2499 49.9999C46.2164 49.9999 46.9999 50.7834 46.9999 51.7499Z" stroke="white" stroke-width="2" stroke-linecap="round" stroke-linejoin="round"/>
</svg>
