<svg width="57" height="57" viewBox="0 0 57 57" fill="none" xmlns="http://www.w3.org/2000/svg">
<rect x="0.5" y="0.650391" width="56" height="56" rx="14" fill="#800020"/>
<path d="M15.905 22.3085L27.6512 29.0592M27.6512 29.0592L39.3974 22.3085M27.6512 29.0592V42.5605M39.8025 23.6586C39.802 23.1851 39.677 22.72 39.44 22.31C39.2031 21.9001 38.8624 21.5596 38.4524 21.3229L29.0014 15.9223C28.5909 15.6853 28.1252 15.5605 27.6512 15.5605C27.1772 15.5605 26.7116 15.6853 26.3011 15.9223L16.8501 21.3229C16.4401 21.5596 16.0994 21.9001 15.8625 22.31C15.6255 22.72 15.5005 23.1851 15.5 23.6586V34.4597C15.5005 34.9332 15.6255 35.3983 15.8625 35.8083C16.0994 36.2183 16.4401 36.5587 16.8501 36.7955L26.3011 42.196C26.7116 42.433 27.1772 42.5578 27.6512 42.5578C28.1252 42.5578 28.5909 42.433 29.0014 42.196L38.4524 36.7955C38.8624 36.5587 39.2031 36.2183 39.44 35.8083C39.677 35.3983 39.802 34.9332 39.8025 34.4597V23.6586Z" stroke="white" stroke-width="2" stroke-linecap="round" stroke-linejoin="round"/>
</svg>
