<svg width="56" height="56" viewBox="0 0 56 56" fill="none" xmlns="http://www.w3.org/2000/svg">
<rect y="-0.0100098" width="56" height="56" rx="14" fill="#800020"/>
<path d="M25.25 38.6501V21.7751C25.25 21.4768 25.1315 21.1906 24.9205 20.9797C24.7095 20.7687 24.4234 20.6501 24.125 20.6501H18.5C17.9033 20.6501 17.331 20.8872 16.909 21.3092C16.4871 21.7311 16.25 22.3034 16.25 22.9001V36.4001C16.25 36.9969 16.4871 37.5692 16.909 37.9911C17.331 38.4131 17.9033 38.6501 18.5 38.6501H32C32.5967 38.6501 33.169 38.4131 33.591 37.9911C34.0129 37.5692 34.25 36.9969 34.25 36.4001V30.7751C34.25 30.4768 34.1315 30.1906 33.9205 29.9797C33.7095 29.7687 33.4234 29.6501 33.125 29.6501H16.25M30.875 16.1501H37.625C38.2463 16.1501 38.75 16.6538 38.75 17.2751V24.0251C38.75 24.6465 38.2463 25.1501 37.625 25.1501H30.875C30.2537 25.1501 29.75 24.6465 29.75 24.0251V17.2751C29.75 16.6538 30.2537 16.1501 30.875 16.1501Z" stroke="white" stroke-width="2" stroke-linecap="round" stroke-linejoin="round"/>
</svg>
