<svg width="56" height="57" viewBox="0 0 56 57" fill="none" xmlns="http://www.w3.org/2000/svg">
<rect y="0.650391" width="56" height="56" rx="14" fill="#800020"/>
<path d="M28 16.9836V40.317" stroke="white" stroke-width="2.33333" stroke-linecap="round" stroke-linejoin="round"/>
<path d="M33.8333 20.4836H25.0833C24.0004 20.4836 22.9618 20.9138 22.196 21.6796C21.4302 22.4454 21 23.484 21 24.567C21 25.6499 21.4302 26.6886 22.196 27.4543C22.9618 28.2201 24.0004 28.6503 25.0833 28.6503H30.9167C31.9996 28.6503 33.0382 29.0805 33.804 29.8463C34.5698 30.6121 35 31.6507 35 32.7336C35 33.8166 34.5698 34.8552 33.804 35.621C33.0382 36.3868 31.9996 36.817 30.9167 36.817H21" stroke="white" stroke-width="2.33333" stroke-linecap="round" stroke-linejoin="round"/>
</svg>
