<svg width="57" height="57" viewBox="0 0 57 57" fill="none" xmlns="http://www.w3.org/2000/svg">
<rect x="0.600586" y="0.399902" width="56" height="56" rx="14" fill="#800020"/>
<path d="M19.6006 28.3999C19.6006 30.1799 20.1284 31.92 21.1174 33.4C22.1063 34.8801 23.5119 36.0336 25.1564 36.7148C26.801 37.396 28.6106 37.5742 30.3564 37.227C32.1022 36.8797 33.7059 36.0225 34.9645 34.7639C36.2232 33.5052 37.0804 31.9015 37.4277 30.1557C37.7749 28.4099 37.5967 26.6003 36.9155 24.9558C36.2343 23.3112 35.0808 21.9056 33.6007 20.9167C32.1207 19.9277 30.3806 19.3999 28.6006 19.3999C26.0845 19.4094 23.6696 20.3911 21.8606 22.1399L19.6006 24.3999M19.6006 24.3999V19.3999M19.6006 24.3999H24.6006" stroke="white" stroke-width="2" stroke-linecap="round" stroke-linejoin="round"/>
</svg>
