<svg width="57" height="57" viewBox="0 0 57 57" fill="none" xmlns="http://www.w3.org/2000/svg">
<rect x="0.5" y="0.650391" width="56" height="56" rx="14" fill="#800020"/>
<path d="M28.4999 40.317C34.9432 40.317 40.1666 35.0936 40.1666 28.6503C40.1666 22.207 34.9432 16.9836 28.4999 16.9836C22.0566 16.9836 16.8333 22.207 16.8333 28.6503C16.8333 35.0936 22.0566 40.317 28.4999 40.317Z" stroke="white" stroke-width="2.33333" stroke-linecap="round" stroke-linejoin="round"/>
<path d="M28.5 35.6504C32.366 35.6504 35.5 32.5164 35.5 28.6504C35.5 24.7844 32.366 21.6504 28.5 21.6504C24.634 21.6504 21.5 24.7844 21.5 28.6504C21.5 32.5164 24.634 35.6504 28.5 35.6504Z" stroke="white" stroke-width="2.33333" stroke-linecap="round" stroke-linejoin="round"/>
<path d="M28.5001 30.9838C29.7887 30.9838 30.8334 29.9391 30.8334 28.6505C30.8334 27.3618 29.7887 26.3171 28.5001 26.3171C27.2114 26.3171 26.1667 27.3618 26.1667 28.6505C26.1667 29.9391 27.2114 30.9838 28.5001 30.9838Z" stroke="white" stroke-width="2.33333" stroke-linecap="round" stroke-linejoin="round"/>
</svg>
